<?xml version="1.0" encoding="UTF-8" standalone="no"?>
<!-- Created with Inkscape (http://www.inkscape.org/) -->

<svg
   xmlns:dc="http://purl.org/dc/elements/1.1/"
   xmlns:cc="http://creativecommons.org/ns#"
   xmlns:rdf="http://www.w3.org/1999/02/22-rdf-syntax-ns#"
   xmlns:svg="http://www.w3.org/2000/svg"
   xmlns="http://www.w3.org/2000/svg"
   xmlns:sodipodi="http://sodipodi.sourceforge.net/DTD/sodipodi-0.dtd"
   xmlns:inkscape="http://www.inkscape.org/namespaces/inkscape"
   width="64.055855"
   height="84.016258"
   id="svg2"
   version="1.1"
   inkscape:version="0.48.3.1 r9886"
   sodipodi:docname="logo.svg">
  <defs
     id="defs4" />
  <sodipodi:namedview
     id="base"
     pagecolor="#ffffff"
     bordercolor="#666666"
     borderopacity="1.0"
     inkscape:pageopacity="0.0"
     inkscape:pageshadow="2"
     inkscape:zoom="5.6568542"
     inkscape:cx="-5.4988781"
     inkscape:cy="36.07951"
     inkscape:document-units="px"
     inkscape:current-layer="g3903"
     showgrid="false"
     fit-margin-top="0"
     fit-margin-left="0"
     fit-margin-right="0"
     fit-margin-bottom="0"
     inkscape:window-width="1920"
     inkscape:window-height="1006"
     inkscape:window-x="1920"
     inkscape:window-y="25"
     inkscape:window-maximized="1" />
  <metadata
     id="metadata7">
    <rdf:RDF>
      <cc:Work
         rdf:about="">
        <dc:format>image/svg+xml</dc:format>
        <dc:type
           rdf:resource="http://purl.org/dc/dcmitype/StillImage" />
        <dc:title></dc:title>
      </cc:Work>
    </rdf:RDF>
  </metadata>
  <g
     inkscape:label="Layer 1"
     inkscape:groupmode="layer"
     id="layer1"
     transform="translate(-347.99314,-165.60641)">
    <g
       id="g3903"
       transform="matrix(1.1519275,0,0,1.1855718,-39.879163,-45.19863)">
      <g
         id="g3978"
         transform="matrix(0.94579021,0,0,0.93922947,18.255021,15.110474)">
        <g
           inkscape:transform-center-y="13.363506"
           id="g3934"
           transform="matrix(-0.36843883,0.93372802,-0.93372802,-0.34782433,633.66776,220.11883)"
           inkscape:transform-center-x="-26.153712">
          <path
             transform="translate(-40.40625,0)"
             inkscape:connector-curvature="0"
             id="path3936"
             d="m 144.5625,218.92468 -4.0625,1.375 -4.0625,3.5625 -2.5,4.5625 -0.8125,4.875 0.3125,8 2.6875,11.625 3.8125,10 4.9375,10.3125 4.1875,-9 3.8125,-10 2.625,-9.8125 1.125,-7.5 -0.3125,-6 -1.9375,-5.6875 -3.4375,-3.9375 -4.4375,-2.25 z"
             style="fill:#699833;fill-opacity:1;stroke:none" />
          <g
             id="g3938">
            <path
               style="fill:none;stroke:#000000;stroke-width:0.90790462px;stroke-linecap:round;stroke-linejoin:miter;stroke-opacity:1"
               d="m 144.75,218.86218 c 0,0 -26.25,1.25 0,54.5"
               id="path3940"
               inkscape:connector-curvature="0"
               transform="translate(-40.40625,0)" />
            <path
               inkscape:connector-curvature="0"
               id="path3942"
               d="m 104.43809,218.86218 c 0,0 26.25,1.25 0,54.5"
               style="fill:none;stroke:#000000;stroke-width:0.90790462px;stroke-linecap:round;stroke-linejoin:miter;stroke-opacity:1" />
          </g>
        </g>
        <g
           inkscape:transform-center-y="-9.6375125"
           inkscape:transform-center-x="-30.121314"
           transform="matrix(0.21896786,0.97264937,-0.97669854,0.22841147,585.86778,30.475301)"
           id="g3944">
          <path
             style="fill:#a9d379;fill-opacity:1;stroke:none"
             d="m 144.5625,218.92468 -4.0625,1.375 -4.0625,3.5625 -2.5,4.5625 -0.8125,4.875 0.3125,8 2.6875,11.625 3.8125,10 4.9375,10.3125 4.1875,-9 3.8125,-10 2.625,-9.8125 1.125,-7.5 -0.3125,-6 -1.9375,-5.6875 -3.4375,-3.9375 -4.4375,-2.25 z"
             id="path3946"
             inkscape:connector-curvature="0"
             transform="translate(-40.40625,0)" />
          <g
             id="g3948">
            <path
               transform="translate(-40.40625,0)"
               inkscape:connector-curvature="0"
               id="path3950"
               d="m 144.75,218.86218 c 0,0 -26.25,1.25 0,54.5"
               style="fill:none;stroke:#000000;stroke-width:0.90790462px;stroke-linecap:round;stroke-linejoin:miter;stroke-opacity:1" />
            <path
               style="fill:none;stroke:#000000;stroke-width:0.90790462px;stroke-linecap:round;stroke-linejoin:miter;stroke-opacity:1"
               d="m 104.43809,218.86218 c 0,0 26.25,1.25 0,54.5"
               id="path3952"
               inkscape:connector-curvature="0" />
          </g>
        </g>
        <g
           inkscape:transform-center-y="-30.359224"
           inkscape:transform-center-x="-8.0037179"
           transform="matrix(-1.0092256,-0.17251873,-0.19466176,0.95758288,500.96855,-10.424542)"
           id="g3968">
          <path
             style="fill:#8bc34a;fill-opacity:1;stroke:none"
             d="m 144.5625,218.92468 -4.0625,1.375 -4.0625,3.5625 -2.5,4.5625 -0.8125,4.875 0.3125,8 2.6875,11.625 3.8125,10 4.9375,10.3125 4.1875,-9 3.8125,-10 2.625,-9.8125 1.125,-7.5 -0.3125,-6 -1.9375,-5.6875 -3.4375,-3.9375 -4.4375,-2.25 z"
             id="path3970"
             inkscape:connector-curvature="0"
             transform="translate(-40.40625,0)" />
          <g
             id="g3972">
            <path
               transform="translate(-40.40625,0)"
               inkscape:connector-curvature="0"
               id="path3974"
               d="m 144.75,218.86218 c 0,0 -26.25,1.25 0,54.5"
               style="fill:none;stroke:#000000;stroke-width:0.90790462px;stroke-linecap:round;stroke-linejoin:miter;stroke-opacity:1" />
            <path
               style="fill:none;stroke:#000000;stroke-width:0.90790462px;stroke-linecap:round;stroke-linejoin:miter;stroke-opacity:1"
               d="m 104.43809,218.86218 c 0,0 26.25,1.25 0,54.5"
               id="path3976"
               inkscape:connector-curvature="0" />
          </g>
        </g>
      </g>
    </g>
  </g>
</svg>
